# File created by Blade
# Date/Time:  Wed Jan 21 15:55:51 2015
# Frame Rate: 120.000 fps
#------------------------------------------------------
:FULLY-SPECIFIED
:DEGREES
457
root 24.540676 14.261066 -13.196602 -165.480748 15.195801 -199.101982
Spine 60.735672 -5.290720 -2.836718
Head -10.220977 -7.554083 -0.448147
LeftShoulder 19.332373 -36.607650 -3.214852
LeftArm 24.217934 19.798593 -63.011348
LeftForeArm -42.734400 -0.000000 41.522214
LeftHand -13.375526 -0.000000 12.802194
LeftHandThumb1 -26.253704 0.000000 33.147579
RightShoulder 7.631832 -3.997436 2.860070
RightArm 27.659670 12.426429 60.283254
RightForeArm 29.375932 -0.000000 14.019523
RightHand -1.225084 -0.000000 -0.236529
RightHandThumb1 -24.326973 -0.000000 -32.862282
LeftUpLeg -3.971551 38.870583 40.534603
LeftLeg 1.811297 -0.000000 -0.000000
LeftFoot -2.814856 19.192534 -26.558473
LeftToeBase 44.802403 -0.000000 -0.000000
RightUpLeg -116.581006 -13.128662 -1.610211
RightLeg 136.436816 -0.000000 -0.000000
RightFoot -70.141981 -34.428884 37.564339
RightToeBase 20.923532 -0.000000 -0.000000
458
root 24.528661 14.244488 -13.157354 -165.576902 15.098407 -199.211269
Spine 60.532152 -5.586112 -2.555053
Head -10.110068 -7.723759 -0.618171
LeftShoulder 19.293976 -36.756685 -3.271804
LeftArm 24.101172 19.907926 -63.320006
LeftForeArm -42.811959 -0.000000 41.257405
LeftHand -13.275848 -0.000000 12.959569
LeftHandThumb1 -26.253704 0.000000 33.147579
RightShoulder 7.723937 -4.214101 3.135089
RightArm 27.910616 12.900705 59.940236
RightForeArm 28.835801 -0.000000 14.314122
RightHand -0.621325 0.000000 0.502852
RightHandThumb1 -24.326973 -0.000000 -32.862282
LeftUpLeg -4.090748 38.706680 40.422485
LeftLeg 1.834597 -0.000000 -0.000000
LeftFoot -2.850855 19.173263 -26.494837
LeftToeBase 44.860221 -0.000000 -0.000000
RightUpLeg -116.678179 -13.251810 -1.673102
RightLeg 136.449560 -0.000000 -0.000000
RightFoot -70.069879 -34.593770 37.356892
RightToeBase 21.165217 -0.000000 -0.000000
459
root 24.526316 14.227680 -13.119201 -165.770298 15.078486 -199.222732
Spine 60.523798 -5.705723 -2.190940
Head -10.202047 -7.898836 -0.532960
LeftShoulder 19.422596 -37.356388 -3.271511
LeftArm 23.499133 19.919751 -64.125991
LeftForeArm -42.574068 -0.000000 41.023218
LeftHand -13.293345 -0.000000 13.221126
LeftHandThumb1 -26.253704 0.000000 33.147579
RightShoulder 7.641011 -4.347500 3.419783
RightArm 28.293073 13.098650 59.518644
RightForeArm 28.367862 -0.000000 14.736337
RightHand -0.215902 -0.000000 1.019562
RightHandThumb1 -24.326973 -0.000000 -32.862282
LeftUpLeg -3.985365 38.609549 40.534763
LeftLeg 1.840758 -0.000000 -0.000000
LeftFoot -2.875941 19.108939 -26.611772
LeftToeBase 45.109808 -0.000000 -0.000000
RightUpLeg -116.624187 -13.222262 -1.681220
RightLeg 136.445187 -0.000000 -0.000000
RightFoot -70.013363 -34.502347 37.390189
RightToeBase 20.934589 -0.000000 -0.000000
460
root 24.521105 14.208834 -13.078442 -165.967663 15.059404 -199.279154
Spine 60.498898 -5.818014 -1.869969
Head -10.297830 -8.028579 -0.445603
LeftShoulder 19.385794 -37.670978 -3.137690
LeftArm 23.284390 19.935742 -64.732033
LeftForeArm -42.399279 -0.000000 40.759641
LeftHand -13.287788 -0.000000 13.434185
LeftHandThumb1 -26.253704 0.000000 33.147579
RightShoulder 7.484068 -4.359051 3.663496
RightArm 28.724323 13.051181 59.083938
RightForeArm 27.897977 -0.000000 15.042969
RightHand -0.651973 -0.000000 0.874902
RightHandThumb1 -24.326973 -0.000000 -32.862282
LeftUpLeg -3.901996 38.484617 40.582982
LeftLeg 1.844204 -0.000000 -0.000000
LeftFoot -2.787317 19.071819 -26.490082
LeftToeBase 44.993579 -0.000000 -0.000000
RightUpLeg -116.603428 -13.211781 -1.730099
RightLeg 136.442659 -0.000000 -0.000000
RightFoot -69.955426 -34.680147 37.216261
RightToeBase 21.184311 -0.000000 -0.000000
461
root 24.503097 14.199007 -13.044084 -166.195276 14.793458 -199.410406
Spine 60.465571 -6.308338 -1.581293
Head -10.314395 -8.068617 -0.500809
LeftShoulder 19.256952 -37.643433 -3.005251
LeftArm 23.386661 19.806509 -65.132019
LeftForeArm -42.198205 -0.000000 40.492073
LeftHand -13.405233 0.000000 13.916892
LeftHandThumb1 -26.253704 0.000000 33.147579
RightShoulder 7.439911 -4.257152 3.742025
RightArm 29.103330 12.955983 58.714539
RightForeArm 28.075544 -0.000000 15.085065
RightHand -1.275081 -0.000000 0.485786
RightHandThumb1 -24.326973 -0.000000 -32.862282
LeftUpLeg -4.086845 38.065972 40.440032
LeftLeg 1.901114 -0.000000 -0.000000
LeftFoot -2.874029 19.121656 -26.341435
LeftToeBase 45.077688 -0.000000 -0.000000
RightUpLeg -116.575691 -13.559364 -1.768780
RightLeg 136.471831 -0.000000 -0.000000
RightFoot -69.876195 -34.599446 37.163601
RightToeBase 20.961454 -0.000000 -0.000000
462
root 24.509746 14.175835 -13.003457 -166.391938 14.836159 -199.381570
Spine 60.375990 -6.341821 -1.198349
Head -10.221218 -8.192127 -0.446609
LeftShoulder 19.314682 -37.733951 -2.944512
LeftArm 23.286644 19.747821 -65.541574
LeftForeArm -42.132692 -0.000000 40.221631
LeftHand -13.446782 -0.000000 14.230861
LeftHandThumb1 -26.253704 0.000000 33.147579
RightShoulder 7.304171 -4.110002 3.893842
RightArm 29.519944 12.641977 58.275068
RightForeArm 29.039060 -0.000000 14.442169
RightHand -1.125377 -0.000000 0.163695
RightHandThumb1 -24.326973 -0.000000 -32.862282
LeftUpLeg -3.922446 37.997370 40.636608
LeftLeg 1.936622 -0.000000 -0.000000
LeftFoot -2.833712 19.087711 -26.407479
LeftToeBase 45.148251 -0.000000 -0.000000
RightUpLeg -116.539075 -13.422125 -1.718678
RightLeg 136.468754 -0.000000 -0.000000
RightFoot -69.837698 -34.729593 37.104733
RightToeBase 21.179423 -0.000000 -0.000000
463
root 24.518195 14.149843 -12.961306 -166.594239 14.878650 -199.371217
Spine 60.248749 -6.325285 -0.824578
Head -10.063893 -8.391001 -0.247723
LeftShoulder 19.412170 -37.717395 -2.822172
LeftArm 23.253069 19.666171 -65.948512
LeftForeArm -42.220860 -0.000000 39.925613
LeftHand -13.332482 -0.000000 14.616180
LeftHandThumb1 -26.253704 0.000000 33.147579
RightShoulder 7.128091 -4.174150 4.021692
RightArm 30.102599 12.187160 57.800708
RightForeArm 31.214882 -0.000000 12.811136
RightHand 0.064587 -0.000000 0.825371
RightHandThumb1 -24.326973 -0.000000 -32.862282
LeftUpLeg -3.763000 37.846379 40.819197
LeftLeg 1.984790 -0.000000 -0.000000
LeftFoot -2.818332 19.113156 -26.440820
LeftToeBase 45.196135 -0.000000 -0.000000
RightUpLeg -116.514009 -13.279598 -1.673363
RightLeg 136.472838 -0.000000 -0.000000
RightFoot -69.794257 -34.874708 37.036061
RightToeBase 21.196377 -0.000000 -0.000000
464
root 24.521082 14.130242 -12.924302 -166.821710 14.878890 -199.375959
Spine 60.156870 -6.434910 -0.525967
Head -9.930123 -8.400392 -0.107119
LeftShoulder 19.424748 -37.742587 -2.763408
LeftArm 23.151839 19.583603 -66.266979
LeftForeArm -42.412621 -0.000000 39.718877
LeftHand -13.424392 -0.000000 14.962519
LeftHandThumb1 -26.253704 0.000000 33.147579
RightShoulder 7.068679 -3.889070 3.985380
RightArm 30.316084 12.064909 57.891411
RightForeArm 33.437592 -0.000000 11.236223
RightHand 1.099172 -0.000000 1.422223
RightHandThumb1 -24.326973 -0.000000 -32.862282
LeftUpLeg -3.624996 37.688782 40.958619
LeftLeg 2.017271 -0.000000 -0.000000
LeftFoot -2.790361 19.137250 -26.365386
LeftToeBase 45.207931 -0.000000 -0.000000
RightUpLeg -116.451184 -13.226696 -1.641064
RightLeg 136.478947 -0.000000 -0.000000
RightFoot -69.724036 -34.984914 36.946288
RightToeBase 21.191762 -0.000000 -0.000000
